<svg xmlns="http://www.w3.org/2000/svg" viewBox="0 0 128 128" width="128" height="128">
  <!-- Background circle -->
  <circle cx="64" cy="64" r="60" fill="#667eea" stroke="#764ba2" stroke-width="4"/>
  
  <!-- Robot head -->
  <rect x="45" y="35" width="38" height="30" rx="5" fill="white"/>
  
  <!-- Robot eyes -->
  <circle cx="55" cy="45" r="3" fill="#667eea"/>
  <circle cx="73" cy="45" r="3" fill="#667eea"/>
  
  <!-- Robot mouth -->
  <rect x="58" y="55" width="12" height="2" rx="1" fill="#667eea"/>
  
  <!-- Robot antenna -->
  <line x1="64" y1="35" x2="64" y2="25" stroke="white" stroke-width="2"/>
  <circle cx="64" cy="25" r="2" fill="white"/>
  
  <!-- Robot body -->
  <rect x="50" y="65" width="28" height="35" rx="3" fill="white"/>
  
  <!-- Form/document overlay -->
  <rect x="70" y="45" width="20" height="25" rx="2" fill="rgba(255,255,255,0.9)" stroke="#764ba2"/>
  <line x1="73" y1="50" x2="87" y2="50" stroke="#667eea" stroke-width="1"/>
  <line x1="73" y1="55" x2="85" y2="55" stroke="#667eea" stroke-width="1"/>
  <line x1="73" y1="60" x2="87" y2="60" stroke="#667eea" stroke-width="1"/>
  <line x1="73" y1="65" x2="83" y2="65" stroke="#667eea" stroke-width="1"/>
  
  <!-- Control buttons -->
  <circle cx="58" cy="80" r="2" fill="#667eea"/>
  <circle cx="70" cy="80" r="2" fill="#667eea"/>
</svg> 